<?xml version="1.0" standalone="no"?>
<!DOCTYPE svg PUBLIC "-//W3C//DTD SVG 20010904//EN"
 "http://www.w3.org/TR/2001/REC-SVG-20010904/DTD/svg10.dtd">
<svg version="1.0" xmlns="http://www.w3.org/2000/svg"
 width="392.000000pt" height="392.000000pt" viewBox="0 0 392.000000 392.000000"
 preserveAspectRatio="xMidYMid meet">

<g transform="translate(0.000000,392.000000) scale(0.100000,-0.100000)"
fill="#000000" stroke="none">
<path d="M10 2861 c0 -1149 1 -1166 59 -1393 197 -762 838 -1333 1620 -1442
128 -18 377 -21 501 -6 660 82 1219 478 1514 1071 185 373 246 785 175 1198
-126 745 -684 1357 -1409 1550 -255 68 -195 65 -1382 68 l-1078 4 0 -1050z
m2291 513 c187 -31 404 -118 563 -226 85 -57 106 -77 127 -123 24 -52 24 -82
-1 -123 -51 -84 -141 -94 -232 -25 -192 144 -401 219 -644 230 -488 22 -934
-261 -1119 -711 -64 -157 -79 -241 -80 -436 0 -193 14 -270 75 -428 138 -358
478 -640 854 -706 314 -56 592 0 859 173 78 51 109 65 148 69 47 4 51 3 95
-42 46 -46 46 -46 42 -103 -5 -53 -8 -60 -53 -100 -26 -24 -89 -68 -139 -98
-478 -285 -1064 -269 -1531 40 -326 216 -554 569 -620 958 -20 123 -21 352 -1
467 24 135 63 256 121 377 207 432 587 722 1060 808 102 19 362 18 476 -1z
m14 -521 c162 -46 291 -119 408 -232 259 -249 349 -615 236 -956 -137 -410
-554 -677 -979 -626 -376 46 -687 314 -790 681 -27 98 -37 274 -21 376 64 391
370 706 756 774 84 15 311 5 390 -17z"/>
<path d="M2163 2590 c-250 -45 -450 -232 -513 -479 -14 -57 -20 -66 -41 -69
-67 -10 -94 -98 -44 -147 13 -14 35 -25 48 -25 20 0 24 -7 35 -59 7 -33 31
-97 54 -143 51 -102 160 -216 259 -271 83 -46 201 -77 294 -77 84 0 111 15
121 67 5 27 1 37 -24 63 -24 23 -39 30 -71 30 -209 0 -415 155 -469 353 l-10
37 260 0 260 0 30 30 c26 27 30 36 25 68 -12 71 -17 72 -306 72 -142 0 -260 3
-264 6 -9 9 22 104 50 152 13 23 39 59 56 79 70 79 224 153 321 153 123 0 182
66 123 136 -20 23 -33 28 -83 30 -32 2 -82 -1 -111 -6z"/>
</g>
</svg>
